<svg width="46" height="46" viewBox="0 0 46 46" xmlns="http://www.w3.org/2000/svg" class="inline-block"><path d="M.053 22.578c0-4.883-.096-9.807.024-14.708C.212 2.457 2.495.166 7.803.131c9.976-.063 19.954-.063 29.934 0 5.056.038 7.436 2.358 7.498 7.537.129 10.212.129 20.427 0 30.643-.062 5.176-2.445 7.489-7.504 7.53-9.976.077-19.955.077-29.935 0-5.298-.035-7.598-2.33-7.719-7.75-.12-5.158-.024-10.337-.024-15.513Zm3.188-2.713c0 6.546-.194 12.936.169 19.294.073 1.227 2.293 3.303 3.567 3.334 10.523.269 21.067.234 31.586 0 1.16-.024 3.229-1.744 3.274-2.748.297-6.602.152-13.222.152-19.88h-6.362c-.66 10.515-4.772 16.071-12.456 15.956-2.884-.042-6.072-1.322-8.544-2.937-4.524-2.954-5.032-7.973-4.697-13.044l-6.69.025Zm19.28 12.957a9.584 9.584 0 0 0 3.75-.703 9.663 9.663 0 0 0 3.19-2.113 9.772 9.772 0 0 0 2.132-3.193 9.853 9.853 0 0 0 .743-3.778 9.819 9.819 0 0 0-2.675-6.848 9.628 9.628 0 0 0-6.65-3.015 9.584 9.584 0 0 0-3.762.623 9.655 9.655 0 0 0-3.232 2.044 9.765 9.765 0 0 0-2.197 3.146 9.848 9.848 0 0 0-.823 3.76 9.854 9.854 0 0 0 .632 3.8 9.78 9.78 0 0 0 2.038 3.255 9.67 9.67 0 0 0 3.127 2.207 9.59 9.59 0 0 0 3.727.815ZM42.138 8.407c.145-3.299-1.036-5.102-4.603-5.147-3.523-.042-5.256 1.238-5.225 4.917.027 3.226 1.07 5.05 4.655 5.082 3.505.035 5.387-1.193 5.173-4.848v-.004Z"></path></svg>