<svg width="80%" height="auto" viewBox="0 0 520 266" class="block w-auto h-auto max-w-full max-h-33vh relative z-2"><path d="M297.651 80.588c1.813-1.953 3.487-3.905 5.404-5.719a62.222 62.222 0 0 1 34.374-16.529 77.197 77.197 0 0 1 38.975 3.487 58.604 58.604 0 0 1 30.051 23.852l.453.628c1.29-2.023 2.476-4.045 3.87-5.963a48.456 48.456 0 0 1 30.574-19.249 70.96 70.96 0 0 1 12.725-1.325c10.842-.175 21.649 0 32.491 0a32.624 32.624 0 0 1 23.671 8.962 31.044 31.044 0 0 1 8.646 31.384 30.03 30.03 0 0 1-21.649 22.492l-2.475.733 1.882 1.395a51.325 51.325 0 0 1 20.568 46.867 52.628 52.628 0 0 1-11.399 29.71 54.002 54.002 0 0 1-31.376 19.459 69.362 69.362 0 0 1-39.673-2.232 52.854 52.854 0 0 1-28.621-24.061 6.092 6.092 0 0 0-.384-.628h-.279a59.277 59.277 0 0 1-23.531 19.912 74.038 74.038 0 0 1-30.365 6.695v1.325c0 5.126 0 10.461-.314 15.343a29.601 29.601 0 0 1-18.826 25.945 34.394 34.394 0 0 1-32.56-2.197 29.826 29.826 0 0 1-14.782-26.468c-.209-10.461 0-20.678 0-31v-.733c-1.848 1.709-3.486 3.488-5.334 4.987a60.033 60.033 0 0 1-29.632 13.635 72.632 72.632 0 0 1-38.767-3.174 55.349 55.349 0 0 1-24.214-16.56 55.379 55.379 0 0 1-12.356-26.61 72.72 72.72 0 0 1-1.15-12.624v-28.211l-20.011.628v52.83a32.085 32.085 0 0 1-5.195 18.308 31.016 31.016 0 0 1-20.917 13.599 34.045 34.045 0 0 1-28.517-6.59 29.739 29.739 0 0 1-11.4-20.923 60.178 60.178 0 0 1-.278-6.626v-51.121l-20.395.697v53.074a31.739 31.739 0 0 1-5.23 17.994 31.37 31.37 0 0 1-20.916 13.635 34.854 34.854 0 0 1-24.404-3.766A30.552 30.552 0 0 1 .594 189.352V70.161a74.225 74.225 0 0 1 4.218-25.735A63.853 63.853 0 0 1 40.405 6.835 79.675 79.675 0 0 1 71.781.384h17.431a33.289 33.289 0 0 1 22.207 8.543c.736.66 1.413 1.384 2.022 2.162.628.767 1.116 1.604 1.743 2.51 1.151-.766 2.336-1.568 3.487-2.3A73.47 73.47 0 0 1 153.741.836c7.531-.384 15.13-.558 22.695-.28a31.372 31.372 0 0 1 28.413 17.053 31.77 31.77 0 0 1-7.06 39.016 31.745 31.745 0 0 1-12.463 6.7 50.426 50.426 0 0 1-10.772 1.465c-4.602.21-9.238 0-13.945 0a15.02 15.02 0 0 0-2.789.21c-3.486.592-4.392 2.092-3.695 5.788h1.708c4.288 0 8.576 0 12.829.244a69.668 69.668 0 0 1 9.901 2.127c.697 0 1.081.245 1.604-.418a33.189 33.189 0 0 1 29.075-12.693A32.028 32.028 0 0 1 234.586 73.3c.439.594.846 1.211 1.22 1.848.384.558.732 1.151 1.081 1.744a32.798 32.798 0 0 1 33.677-16.669 31.377 31.377 0 0 1 27.087 20.365Zm5.718 94.746v58.759a12.517 12.517 0 0 0 9.273 12.414c2.178.6 4.436.859 6.693.767a13.21 13.21 0 0 0 13.666-14.332v-25.701c0-4.01 1.639-5.649 5.613-5.649h11.365a58.98 58.98 0 0 0 20.115-3.312 40.07 40.07 0 0 0 27.123-37.174c.314-13.634 0-27.269 0-40.904a53.673 53.673 0 0 0-.418-7.497 39.244 39.244 0 0 0-8.037-20.278 39.22 39.22 0 0 0-17.622-12.85 56.949 56.949 0 0 0-35.489-2.058 41.377 41.377 0 0 0-23.427 14.402 41.848 41.848 0 0 0-8.995 26.886c.105 18.831.14 37.696.14 56.527ZM135.125 88.922c0-7.497-.244-14.785 0-22.038a20.409 20.409 0 0 1 10.912-17.645 28.44 28.44 0 0 1 13.945-3.313c5.543 0 11.121.174 16.664 0a12.513 12.513 0 0 0 11.992-8.544 13.321 13.321 0 0 0-11.957-18.516c-6.485-.454-13.004 0-19.488 0a59.49 59.49 0 0 0-18.128 2.998 46.362 46.362 0 0 0-30.121 27.48 54.127 54.127 0 0 0-3.486 20.504V188.41a12.729 12.729 0 0 0 9.308 12.728c2.135.574 4.345.821 6.554.732a13.48 13.48 0 0 0 10.203-4.121 13.495 13.495 0 0 0 3.742-10.35v-71.068h30.19c8.367 0 12.934-4.184 13.701-12.239a12.383 12.383 0 0 0-9.343-14.228 19.452 19.452 0 0 0-4.707-.488h-29.771l-.21-.454Zm56.825 39.545v33.372a51.37 51.37 0 0 0 .732 9.241 36.71 36.71 0 0 0 23.915 29.152 54.016 54.016 0 0 0 39.638 0 36.806 36.806 0 0 0 17.431-13.251 40.666 40.666 0 0 0 7.391-24.724V92.2a15.29 15.29 0 0 0-.209-3.103 12.831 12.831 0 0 0-12.062-10.88c-9.518-1.256-17.431 4.01-17.431 14.68.279 22.911 0 45.857 0 68.802a20.577 20.577 0 0 1-.419 4.394 12.726 12.726 0 0 1-11.783 10.148c-9.657 1.325-17.744-3.871-17.64-14.751.244-20.47 0-40.974 0-61.444V91.05a12.102 12.102 0 0 0-6.519-10.985 16.976 16.976 0 0 0-16.559 0 12.69 12.69 0 0 0-6.555 12.205c.047 11.949.07 24.015.07 36.197ZM48.25 88.922a6.14 6.14 0 0 1 0-.941V68.034A20.928 20.928 0 0 1 56.894 50.6 26.525 26.525 0 0 1 73 45.822h14.921a15.301 15.301 0 0 0 10.459-3.487 13.952 13.952 0 0 0 3.486-14.89 12.417 12.417 0 0 0-11.784-8.753c-6.519-.383-13.073-.21-19.627 0a59.248 59.248 0 0 0-15.443 2.197 47.797 47.797 0 0 0-29.25 20.923 50.749 50.749 0 0 0-7.25 27.409v117.97a20.124 20.124 0 0 0 0 2.058 12.55 12.55 0 0 0 6.658 10.461 17.426 17.426 0 0 0 10.458 1.779 13.005 13.005 0 0 0 11.748-9.45c.414-1.677.601-3.401.559-5.127v-69.22c0-1.36.348-1.778 1.743-1.743h30.539a11.434 11.434 0 0 0 11.33-9.241c.39-1.974.519-3.991.383-5.998a11.578 11.578 0 0 0-9.412-11.194 21.93 21.93 0 0 0-4.532-.418H48.284l-.035-.175Zm421.828-10.88h-14.607a62.744 62.744 0 0 0-8.506.628 32.486 32.486 0 0 0-16.978 7.672 29.397 29.397 0 0 0-9.936 21.795 30.103 30.103 0 0 0 12.411 26.92l10.459 7.602c7.391 5.44 14.851 10.845 22.242 16.32a9.108 9.108 0 0 1 4.358 7.288 9.629 9.629 0 0 1-8.995 9.939c-6.972 1.116-13.282-2.581-13.317-10.462a12.313 12.313 0 0 0-9.378-12.484 24.095 24.095 0 0 0-7.251-.697 12.765 12.765 0 0 0-12.516 9.973 27.651 27.651 0 0 0-.209 7.777 35.149 35.149 0 0 0 26.704 31.768 53.866 53.866 0 0 0 24.404.802 37.097 37.097 0 0 0 20.917-11.194 35.758 35.758 0 0 0 9.099-29.781 31.378 31.378 0 0 0-13.387-22.875c-4.358-3.104-8.646-6.312-12.969-9.485l-19.627-14.402a10.444 10.444 0 0 1-2.022-1.918 4.776 4.776 0 0 1-.662-5.266 4.604 4.604 0 0 1 4.531-2.476h31.586a30.364 30.364 0 0 0 3.974-.279 13.634 13.634 0 0 0 9.029-21.376 13.94 13.94 0 0 0-11.853-5.719c-6.066-.14-11.818-.07-17.57-.07h.069ZM87.016 71.069v-6.52H75.895a42.039 42.039 0 0 0-5.16.174c-3.695.558-4.636 1.987-3.974 5.684l20.255.662Z" fill="#000"></path><path d="M303.368 175.334v-56.527a41.853 41.853 0 0 1 8.994-26.886A41.383 41.383 0 0 1 335.79 77.52a56.948 56.948 0 0 1 35.489 2.058 39.22 39.22 0 0 1 25.658 33.128c.314 2.486.454 4.991.419 7.497v40.905a40.07 40.07 0 0 1-27.123 37.173 58.98 58.98 0 0 1-20.115 3.312h-11.365c-3.974 0-5.613 1.639-5.613 5.649v25.701a13.217 13.217 0 0 1-8.195 13.371 13.203 13.203 0 0 1-5.471.961 21.851 21.851 0 0 1-6.693-.767 12.517 12.517 0 0 1-9.273-12.414v-15.797l-.14-42.962Zm29.633-1.186h19.627a15.366 15.366 0 0 0 14.063-9.823 15.385 15.385 0 0 0 1.032-5.938v-39.266a13.956 13.956 0 0 0-6.972-13.007 19.622 19.622 0 0 0-20.116-.349 14.58 14.58 0 0 0-7.599 13.949v54.644l-.035-.21ZM135.125 88.922h29.632a19.45 19.45 0 0 1 4.706.489 12.378 12.378 0 0 1 9.344 14.227c-.767 8.056-5.334 12.205-13.701 12.24h-30.191v71.068a13.497 13.497 0 0 1-8.404 13.499 13.486 13.486 0 0 1-5.541.973 21.914 21.914 0 0 1-6.553-.732 12.724 12.724 0 0 1-9.308-12.728V69.394a54.107 54.107 0 0 1 3.486-20.504 46.365 46.365 0 0 1 30.12-27.479 59.5 59.5 0 0 1 18.129-2.999c6.484 0 13.003-.348 19.487 0a13.315 13.315 0 0 1 10.883 6.09 13.314 13.314 0 0 1 1.075 12.427 12.518 12.518 0 0 1-11.992 8.543c-5.543.314-11.121 0-16.664 0a28.44 28.44 0 0 0-13.945 3.313 20.397 20.397 0 0 0-10.912 17.645c.105 7.707.349 14.995.349 22.492Zm56.824 39.545V92.27a12.693 12.693 0 0 1 6.554-12.205 16.978 16.978 0 0 1 16.56 0 12.098 12.098 0 0 1 6.519 10.985v70.44c0 10.88 7.983 16.076 17.64 14.751a12.725 12.725 0 0 0 11.783-10.148c.297-1.445.437-2.918.419-4.394 0-22.945.209-45.891 0-68.801 0-10.67 7.913-15.937 17.431-14.681a12.826 12.826 0 0 1 12.062 10.88 15.29 15.29 0 0 1 .209 3.103v70.301a40.666 40.666 0 0 1-7.391 24.724 36.806 36.806 0 0 1-17.431 13.251 54.016 54.016 0 0 1-39.638 0 36.71 36.71 0 0 1-23.915-29.152 51.37 51.37 0 0 1-.732-9.241c-.14-11.368-.07-22.492-.07-33.616ZM48.25 88.922h29.7c1.522-.018 3.04.122 4.533.419a11.573 11.573 0 0 1 9.412 11.194 23.02 23.02 0 0 1-.348 6.172 11.438 11.438 0 0 1-11.19 9.241c-6.206.209-12.412 0-18.583 0H49.819c-1.394 0-1.743.383-1.743 1.743v69.22a19.422 19.422 0 0 1-.558 5.126 13.004 13.004 0 0 1-11.748 9.451 17.426 17.426 0 0 1-10.459-1.779 12.553 12.553 0 0 1-6.659-10.461 20.067 20.067 0 0 1 0-2.058V69.15a50.749 50.749 0 0 1 7.252-27.409 47.797 47.797 0 0 1 29.25-20.923 59.252 59.252 0 0 1 15.443-2.197c6.554 0 13.108-.209 19.627 0a12.41 12.41 0 0 1 11.783 8.753 13.952 13.952 0 0 1-3.486 14.89 15.302 15.302 0 0 1-10.459 3.487h-14.92a26.524 26.524 0 0 0-16.455 5.161 20.922 20.922 0 0 0-8.646 17.436v19.947c.059.212.128.422.21.627Zm421.759-10.879h17.43a13.936 13.936 0 0 1 11.853 5.718 13.637 13.637 0 0 1-9.029 21.377 30.715 30.715 0 0 1-3.974.279h-31.585a4.597 4.597 0 0 0-4.532 2.475 4.784 4.784 0 0 0 .663 5.266 10.44 10.44 0 0 0 2.021 1.918l19.628 14.402c4.322 3.173 8.61 6.381 12.968 9.485a31.379 31.379 0 0 1 13.387 22.876 35.74 35.74 0 0 1-9.099 29.78 37.093 37.093 0 0 1-20.917 11.194 53.847 53.847 0 0 1-24.403-.802 35.153 35.153 0 0 1-26.704-31.768 27.615 27.615 0 0 1 .209-7.777 12.765 12.765 0 0 1 12.515-9.973 24.102 24.102 0 0 1 7.252.698 12.306 12.306 0 0 1 9.377 12.484c0 7.915 6.45 11.612 13.318 10.461a9.624 9.624 0 0 0 8.994-9.938 9.104 9.104 0 0 0-4.358-7.288c-7.391-5.475-14.851-10.88-22.242-16.32l-10.458-7.602a30.097 30.097 0 0 1-12.411-26.921 29.388 29.388 0 0 1 9.936-21.795 32.486 32.486 0 0 1 16.977-7.672 62.744 62.744 0 0 1 8.506-.627c4.951 0 9.797.07 14.678.07Z" fill="#F9F7B9"></path><path d="M333.001 174.148v-54.643a14.577 14.577 0 0 1 7.599-13.949 19.628 19.628 0 0 1 20.116.349 13.951 13.951 0 0 1 6.972 13.007v39.265a15.387 15.387 0 0 1-4.267 11.024 15.365 15.365 0 0 1-10.828 4.738c-4.706.244-9.448 0-14.154 0l-5.438.209Z" fill="#000"></path></svg>